<svg width="24" height="24" viewBox="0 0 24 24" fill="none" xmlns="http://www.w3.org/2000/svg">
<g id="2 users">
<path id="Vector" d="M6.0146 19.5356C4.72049 19.5356 3.93848 18.6055 3.88312 17.31C3.88312 14.6728 6.45982 13.7631 10.3422 13.7325C14.2314 13.7734 16.8151 14.6831 16.8011 17.31C16.7389 18.6055 15.9615 19.5356 14.6698 19.5356H6.0146Z" stroke="#667085" stroke-width="1.44" stroke-miterlimit="10"/>
<path id="Vector_2" d="M18.1861 19.3905C19.4126 19.3905 20.1507 18.5073 20.2099 17.2772C20.2178 15.7723 19.328 14.861 17.8098 14.3662" stroke="#667085" stroke-width="1.44" stroke-miterlimit="10" stroke-linecap="round"/>
<path id="Vector_3" d="M10.1118 11.2123C11.9747 11.2123 13.4849 9.70219 13.4849 7.8393C13.4849 5.97641 11.9747 4.46625 10.1118 4.46625C8.24894 4.46625 6.73877 5.97641 6.73877 7.8393C6.73877 9.70219 8.24894 11.2123 10.1118 11.2123Z" stroke="#667085" stroke-width="1.44" stroke-miterlimit="10"/>
<path id="Vector_4" d="M15.6057 5.29874C16.7157 5.71227 17.5064 6.78173 17.5064 8.03587C17.5064 9.29 16.7157 10.3594 15.6057 10.773" stroke="#667085" stroke-width="1.44" stroke-miterlimit="10" stroke-linecap="round"/>
</g>
</svg>
