<svg width="24" height="24" viewBox="0 0 24 24" fill="none" xmlns="http://www.w3.org/2000/svg">
<g id="Bank Card swap 1">
<path id="Vector" fill-rule="evenodd" clip-rule="evenodd" d="M10.0764 13.0977H4.99848C3.77059 13.0977 3 13.9675 3 15.1983V18.52C3 19.7508 3.7667 20.6207 4.99848 20.6207H10.0764C11.3082 20.6207 12.0749 19.7508 12.0749 18.52V15.1983C12.0749 13.9675 11.3082 13.0977 10.0764 13.0977Z" stroke="#667085" stroke-width="1.5" stroke-linecap="round" stroke-linejoin="round"/>
<path id="Vector_2" d="M3 15.7677H12.0749" stroke="#667085" stroke-width="1.5" stroke-linecap="round" stroke-linejoin="round"/>
<path id="Vector_3" fill-rule="evenodd" clip-rule="evenodd" d="M19.0002 3.37891H13.9223C12.6944 3.37891 11.9238 4.24874 11.9238 5.47955V8.80128C11.9238 10.0321 12.6905 10.9019 13.9223 10.9019H19.0002C20.232 10.9019 20.9987 10.0321 20.9987 8.80128V5.47955C20.9987 4.24874 20.232 3.37891 19.0002 3.37891Z" stroke="#667085" stroke-width="1.5" stroke-linecap="round" stroke-linejoin="round"/>
<path id="Vector_4" d="M11.9238 6.0451H20.9987" stroke="#667085" stroke-width="1.5" stroke-linecap="round" stroke-linejoin="round"/>
<path id="Vector_5" d="M19.6398 15.1719V17.2219C19.6398 19.0988 18.1191 20.6195 16.2432 20.6195" stroke="#667085" stroke-width="1.5" stroke-linecap="round" stroke-linejoin="round"/>
<path id="Vector_6" d="M18.2822 16.4559L19.6405 15.0977L20.9997 16.4559" stroke="#667085" stroke-width="1.5" stroke-linecap="round" stroke-linejoin="round"/>
<path id="Vector_7" d="M4.3584 8.82657V6.77652C4.3584 4.89966 5.87915 3.37891 7.75504 3.37891" stroke="#667085" stroke-width="1.5" stroke-linecap="round" stroke-linejoin="round"/>
<path id="Vector_8" d="M5.71751 7.54297L4.35924 8.90124L3 7.54297" stroke="#667085" stroke-width="1.5" stroke-linecap="round" stroke-linejoin="round"/>
</g>
</svg>
