<svg width="24" height="24" viewBox="0 0 24 24" fill="none" xmlns="http://www.w3.org/2000/svg">
<g id="Calculate 1">
<path id="Vector" d="M8.25362 3.36H15.3301C18.0155 3.36 19.6855 5.25519 19.6855 7.9378V16.0622C19.6855 18.7448 18.0155 20.64 15.3291 20.64H8.25362C5.56916 20.64 3.89813 18.7448 3.89813 16.0622V7.9378C3.89813 5.25519 5.57662 3.36 8.25362 3.36Z" stroke="#667085" stroke-width="1.44" stroke-linecap="round" stroke-linejoin="round"/>
<path id="Vector_2" d="M7.60917 13.47V13.4796M7.60917 17.07V17.0796M11.6892 13.47V13.4796M11.6892 17.07V17.0796M15.7692 13.47V13.4796M15.7692 17.07V17.0796M7.63358 13.3725C7.65731 13.3726 7.68046 13.3797 7.70013 13.393C7.7198 13.4062 7.73511 13.4249 7.74413 13.4469C7.75313 13.4688 7.75545 13.493 7.75076 13.5162C7.74609 13.5395 7.73461 13.5608 7.71781 13.5775C7.70101 13.5943 7.67964 13.6056 7.65637 13.6102C7.6331 13.6148 7.609 13.6124 7.5871 13.6033C7.5652 13.5943 7.54648 13.5788 7.53332 13.5591C7.52015 13.5394 7.51312 13.5162 7.51312 13.4925C7.51305 13.4767 7.51611 13.461 7.52214 13.4463C7.52817 13.4317 7.53704 13.4185 7.54825 13.4073C7.55946 13.3961 7.57278 13.3873 7.58743 13.3813C7.60208 13.3754 7.61776 13.3723 7.63358 13.3725ZM7.63358 16.9725C7.65731 16.9726 7.68046 16.9797 7.70013 16.993C7.7198 17.0062 7.73511 17.0249 7.74413 17.0469C7.75313 17.0688 7.75545 17.093 7.75076 17.1162C7.74609 17.1395 7.73461 17.1608 7.71781 17.1775C7.70101 17.1943 7.67964 17.2056 7.65637 17.2102C7.6331 17.2148 7.609 17.2124 7.5871 17.2033C7.5652 17.1943 7.54648 17.1788 7.53332 17.1591C7.52015 17.1394 7.51312 17.1162 7.51312 17.0925C7.51305 17.0767 7.51611 17.061 7.52214 17.0463C7.52817 17.0317 7.53704 17.0185 7.54825 17.0073C7.55946 16.9961 7.57278 16.9873 7.58743 16.9813C7.60208 16.9754 7.61776 16.9723 7.63358 16.9725ZM11.7136 13.3725C11.7373 13.3726 11.7605 13.3797 11.7802 13.393C11.7998 13.4062 11.8151 13.4249 11.8241 13.4469C11.8332 13.4688 11.8355 13.493 11.8308 13.5162C11.826 13.5395 11.8146 13.5608 11.7978 13.5775C11.781 13.5943 11.7596 13.6056 11.7364 13.6102C11.7132 13.6148 11.689 13.6124 11.6671 13.6033C11.6452 13.5943 11.6265 13.5788 11.6133 13.5591C11.6002 13.5394 11.5932 13.5162 11.5932 13.4925C11.5931 13.4767 11.5961 13.461 11.6022 13.4463C11.6081 13.4317 11.6171 13.4185 11.6283 13.4073C11.6394 13.3961 11.6528 13.3873 11.6675 13.3813C11.682 13.3754 11.6978 13.3723 11.7136 13.3725ZM11.7136 16.9725C11.7373 16.9726 11.7605 16.9797 11.7802 16.993C11.7998 17.0062 11.8151 17.0249 11.8241 17.0469C11.8332 17.0688 11.8355 17.093 11.8308 17.1162C11.826 17.1395 11.8146 17.1608 11.7978 17.1775C11.781 17.1943 11.7596 17.2056 11.7364 17.2102C11.7132 17.2148 11.689 17.2124 11.6671 17.2033C11.6452 17.1943 11.6265 17.1788 11.6133 17.1591C11.6002 17.1394 11.5932 17.1162 11.5932 17.0925C11.5931 17.0767 11.5961 17.061 11.6022 17.0463C11.6081 17.0317 11.6171 17.0185 11.6283 17.0073C11.6394 16.9961 11.6528 16.9873 11.6675 16.9813C11.682 16.9754 11.6978 16.9723 11.7136 16.9725ZM15.7936 13.3725C15.8173 13.3726 15.8405 13.3797 15.8602 13.393C15.8798 13.4062 15.8951 13.4249 15.9041 13.4469C15.9132 13.4688 15.9155 13.493 15.9108 13.5162C15.906 13.5395 15.8946 13.5608 15.8778 13.5775C15.861 13.5943 15.8396 13.6056 15.8164 13.6102C15.7932 13.6148 15.769 13.6124 15.7471 13.6033C15.7252 13.5943 15.7065 13.5788 15.6933 13.5591C15.6802 13.5394 15.6732 13.5162 15.6732 13.4925C15.6731 13.4767 15.6761 13.461 15.6822 13.4463C15.6881 13.4317 15.6971 13.4185 15.7083 13.4073C15.7194 13.3961 15.7328 13.3873 15.7475 13.3813C15.762 13.3754 15.7778 13.3723 15.7936 13.3725ZM15.7936 16.9725C15.8173 16.9726 15.8405 16.9797 15.8602 16.993C15.8798 17.0062 15.8951 17.0249 15.9041 17.0469C15.9132 17.0688 15.9155 17.093 15.9108 17.1162C15.906 17.1395 15.8946 17.1608 15.8778 17.1775C15.861 17.1943 15.8396 17.2056 15.8164 17.2102C15.7932 17.2148 15.769 17.2124 15.7471 17.2033C15.7252 17.1943 15.7065 17.1788 15.6933 17.1591C15.6802 17.1394 15.6732 17.1162 15.6732 17.0925C15.6731 17.0767 15.6761 17.061 15.6822 17.0463C15.6881 17.0317 15.6971 17.0185 15.7083 17.0073C15.7194 16.9961 15.7328 16.9873 15.7475 16.9813C15.762 16.9754 15.7778 16.9723 15.7936 16.9725Z" stroke="#667085" stroke-width="1.44" stroke-linecap="round" stroke-linejoin="round"/>
<path id="Vector_3" fill-rule="evenodd" clip-rule="evenodd" d="M14.8814 6.6225H8.70453C7.73965 6.6225 7.13812 7.16239 7.13812 8.15341V8.43177C7.13812 9.43867 7.73965 9.9907 8.70453 9.9907H14.8786C15.8463 9.9907 16.4451 9.44894 16.4451 8.45698V8.15341C16.4479 7.16239 15.8491 6.6225 14.8814 6.6225Z" stroke="#667085" stroke-width="1.44" stroke-linecap="round" stroke-linejoin="round"/>
</g>
</svg>
