<svg width="24" height="24" viewBox="0 0 24 24" fill="none" xmlns="http://www.w3.org/2000/svg">
<g id="Delivery Box 1 1">
<path id="Vector" d="M20.123 8.84332V15.1388C20.123 15.9729 19.6775 16.7444 18.9555 17.161L13.5034 20.3088C12.7805 20.7263 11.8904 20.7263 11.1674 20.3088L5.71535 17.161C4.99334 16.7444 4.54779 15.9729 4.54779 15.1388V8.84332C4.54779 8.00828 4.99334 7.23769 5.71535 6.82016L11.1674 3.67243C11.8904 3.25584 12.7805 3.25584 13.5034 3.67243L18.9555 6.82016C19.6775 7.23769 20.123 8.00828 20.123 8.84332Z" stroke="#667085" stroke-width="1.44" stroke-linecap="round" stroke-linejoin="round"/>
<path id="Vector_2" d="M8.90436 5.32407L16.3655 9.6403V12.2705" stroke="#667085" stroke-width="1.44" stroke-linecap="round" stroke-linejoin="round"/>
<path id="Vector_3" d="M4.87128 7.64624L12.3325 11.9625L19.7927 7.64624" stroke="#667085" stroke-width="1.44" stroke-linecap="round" stroke-linejoin="round"/>
<path id="Vector_4" d="M12.3375 20.6398V11.9559" stroke="#667085" stroke-width="1.44" stroke-linecap="round" stroke-linejoin="round"/>
</g>
</svg>
