<svg width="20" height="20" viewBox="0 0 20 20" fill="none" xmlns="http://www.w3.org/2000/svg">
<path d="M6.55469 14.0599V14.7556C6.55469 16.079 7.38608 17.0207 8.718 17.0207H15.3436C16.6755 17.0207 17.4984 16.079 17.4984 14.7556V5.24557C17.4984 3.92214 16.6755 2.98047 15.3436 2.98047H8.718C7.38608 2.98047 6.55469 3.92214 6.55469 5.24557V5.94122" stroke="#667085" stroke-width="1.25" stroke-linecap="round" stroke-linejoin="round"/>
<path d="M4.65651 5.94055H8.45967C9.789 5.94055 10.6162 6.87883 10.6162 8.20734V11.7908C10.6162 13.1193 9.789 14.0575 8.45967 14.0575H4.65651C3.32714 14.0575 2.5 13.1193 2.5 11.7908V8.20734C2.5 6.87883 3.33053 5.94055 4.65651 5.94055Z" stroke="#667085" stroke-width="1.25" stroke-linecap="round" stroke-linejoin="round"/>
<path d="M13.5156 2.98035V12.554C13.5156 12.9722 13.854 13.3107 14.2723 13.3107H17.4995" stroke="#667085" stroke-width="1.25" stroke-linecap="round" stroke-linejoin="round"/>
<path d="M17.4974 9.99512H10.6172" stroke="#667085" stroke-width="1.25" stroke-linecap="round" stroke-linejoin="round"/>
<path d="M10.1406 6.68652H17.4984" stroke="#667085" stroke-width="1.25" stroke-linecap="round" stroke-linejoin="round"/>
<path d="M7.63257 8.44531L5.32505 11.5443M5.32422 8.44531L7.63174 11.5443" stroke="#667085" stroke-width="1.25" stroke-linecap="round" stroke-linejoin="round"/>
</svg>
