<svg width="25" height="25" viewBox="0 0 25 25" fill="none" xmlns="http://www.w3.org/2000/svg">
<g id="Category 3">
<path id="Vector" fill-rule="evenodd" clip-rule="evenodd" d="M18.4031 17.8926L18.4021 7.12862C18.4021 5.13111 16.7821 3.51111 14.7846 3.51111H9.26889C7.27137 3.51111 5.65137 5.13111 5.65137 7.1296L5.65235 17.8936C5.65235 19.8911 7.27235 21.5111 9.26986 21.5111H14.7846C16.7831 21.5111 18.4031 19.8911 18.4031 17.8926Z" stroke="#667085" stroke-width="1.5" stroke-linecap="round" stroke-linejoin="round"/>
<path id="Vector_2" d="M12.0275 17.8417V17.7935M12.0275 17.5404C11.8893 17.5404 11.7773 17.6524 11.7773 17.7902C11.7773 17.9284 11.8893 18.0404 12.0275 18.0404C12.1658 18.0404 12.2778 17.9284 12.2778 17.7902C12.2778 17.6524 12.1658 17.5404 12.0275 17.5404Z" stroke="#667085" stroke-width="1.5" stroke-linecap="round" stroke-linejoin="round"/>
</g>
</svg>
