<svg width="24" height="24" viewBox="0 0 24 24" fill="none" xmlns="http://www.w3.org/2000/svg">
<g id="Home 1">
<path id="Vector" d="M20.5494 17.9078C20.5396 19.6251 19.1395 21.0096 17.4212 20.9999H6.57541C4.8581 21.0087 3.45798 19.6222 3.4502 17.9049V10.0626C3.45798 9.38835 3.77712 8.75494 4.31518 8.34823L10.2124 3.61663C11.2525 2.79446 12.7217 2.79446 13.7618 3.61663L19.6834 8.34434C20.2195 8.75105 20.5387 9.38154 20.5494 10.0539V17.9078Z" stroke="#667085" stroke-width="1.5" stroke-linecap="round" stroke-linejoin="round"/>
<path id="Vector_2" d="M16.4623 20.9991V12.5624C16.4623 11.964 15.9767 11.4785 15.3784 11.4785H8.61906C8.02067 11.4785 7.53516 11.964 7.53516 12.5624V20.9991" stroke="#667085" stroke-width="1.5" stroke-linecap="round" stroke-linejoin="round"/>
<path id="Vector_3" d="M7.53516 17.7585H16.4623M7.53516 14.6191H16.4623" stroke="#667085" stroke-width="1.5" stroke-linecap="round" stroke-linejoin="round"/>
</g>
</svg>
