<svg width="25" height="25" viewBox="0 0 25 25" fill="none" xmlns="http://www.w3.org/2000/svg">
<g id="Category 4">
<path id="Vector" fill-rule="evenodd" clip-rule="evenodd" d="M5.46045 10.0775C5.46045 6.45039 8.40071 3.51111 12.0268 3.51111C15.653 3.51111 18.5933 6.45039 18.5933 10.0775L18.5943 11.3959C18.5943 12.1762 18.7655 12.9458 19.0982 13.6512L19.5643 14.6416C20.2765 16.1555 19.1722 17.8962 17.4987 17.8962H6.55502C4.88155 17.8962 3.77725 16.1555 4.48945 14.6416L4.95549 13.6512C5.28727 12.9458 5.45948 12.1762 5.45948 11.3959L5.46045 10.0775Z" stroke="#667085" stroke-width="1.5" stroke-linecap="round" stroke-linejoin="round"/>
<path id="Vector_2" d="M8.92773 18.4115C8.92773 20.1229 10.3151 21.5113 12.0265 21.5113C13.7389 21.5113 15.1263 20.1229 15.1263 18.4115" stroke="#667085" stroke-width="1.5" stroke-linecap="round" stroke-linejoin="round"/>
</g>
</svg>
