<svg width="18" height="18" viewBox="0 0 18 18" fill="none" xmlns="http://www.w3.org/2000/svg">
<path d="M14.8745 9.7137V6.87055C14.8745 6.46266 14.7166 6.07063 14.4348 5.77679L11.5146 2.73496C11.217 2.42527 10.8054 2.25002 10.3755 2.25002H6.02318C4.45203 2.24398 3.16415 3.49561 3.12714 5.06675V9.7137" stroke="#667085" stroke-width="1.125" stroke-linecap="round" stroke-linejoin="round"/>
<path d="M10.748 2.29639V4.52394C10.7473 5.61166 11.6273 6.49392 12.715 6.49618H14.8247" stroke="#667085" stroke-width="1.125" stroke-linecap="round" stroke-linejoin="round"/>
<path d="M3.3125 14.6036H4.36018C5.00073 14.6036 5.52041 14.0839 5.52041 13.4434C5.52041 12.8036 5.00073 12.2839 4.36018 12.2839H3.3125V15.745" stroke="#667085" stroke-width="1.125" stroke-linecap="round" stroke-linejoin="round"/>
<path d="M14.8714 12.2814H12.992V15.7508M14.5825 14.3055H12.9924" stroke="#667085" stroke-width="1.125" stroke-linecap="round" stroke-linejoin="round"/>
<path fill-rule="evenodd" clip-rule="evenodd" d="M8.74038 15.7508C9.20043 15.7508 9.64158 15.568 9.96715 15.2424C10.2927 14.9176 10.4755 14.4765 10.4755 14.0165C10.4755 13.5557 10.2927 13.1146 9.96715 12.7898C9.64158 12.4642 9.20043 12.2814 8.74038 12.2814H7.87323V15.7508H8.74038Z" stroke="#667085" stroke-width="1.125" stroke-linecap="round" stroke-linejoin="round"/>
</svg>
