<svg width="24" height="24" viewBox="0 0 24 24" fill="none" xmlns="http://www.w3.org/2000/svg">
<path d="M8.16863 19.7642C11.3669 21.2487 15.2787 20.6761 17.9184 18.0266C21.2895 14.6441 21.295 9.15575 17.9184 5.76675C14.5474 2.38525 9.07094 2.38525 5.6999 5.76675C3.06023 8.41628 2.48859 12.3404 3.96908 15.5495C4.15869 16.0247 4.30627 16.4061 4.30627 16.7763C4.30627 17.811 3.3115 19.0922 3.97468 19.7577C4.63787 20.423 5.91473 19.4249 6.94033 19.4193C7.30836 19.4193 7.696 19.573 8.16863 19.7642Z" stroke="#667085" stroke-width="1.44" stroke-linecap="round" stroke-linejoin="round"/>
<path d="M11.5931 15.6038L11.5987 15.6376" stroke="#667085" stroke-width="1.44" stroke-linecap="round" stroke-linejoin="round"/>
<path d="M11.5937 13.446C11.5834 12.6578 12.298 12.3241 12.8295 12.0195C13.4768 11.6615 13.9158 11.0907 13.9158 10.2997C13.9158 9.12722 12.9705 8.18625 11.8095 8.18625C10.6409 8.18625 9.70312 9.12722 9.70312 10.2997" stroke="#667085" stroke-width="1.44" stroke-linecap="round" stroke-linejoin="round"/>
</svg>
