<svg width="14" height="14" viewBox="0 0 14 14" fill="none" xmlns="http://www.w3.org/2000/svg">
<path fill-rule="evenodd" clip-rule="evenodd" d="M9.50857 9.06434C9.55576 10.133 8.69324 11.0368 7.58225 11.0822C7.50042 11.0856 3.51099 11.0776 3.51099 11.0776C2.40537 11.1615 1.43773 10.367 1.35052 9.30234C1.34395 9.22301 1.34574 4.94244 1.34574 4.94244C1.29676 3.87258 2.15808 2.96657 3.26967 2.91943C3.3527 2.9154 7.33675 2.92288 7.33675 2.92288C8.44775 2.84009 9.41838 3.64033 9.50439 4.71019C9.51042 4.78722 9.50857 9.06434 9.50857 9.06434Z" stroke="#667085" stroke-width="0.875" stroke-linecap="round" stroke-linejoin="round"/>
<path d="M9.50977 5.82173L11.4307 4.24965C11.9067 3.85998 12.6207 4.19948 12.6201 4.81373L12.6131 9.10065C12.6125 9.7149 11.8979 10.0515 11.4231 9.66182L9.50977 8.08973" stroke="#667085" stroke-width="0.875" stroke-linecap="round" stroke-linejoin="round"/>
</svg>
